<svg xmlns="http://www.w3.org/2000/svg"  viewBox="0 0 100 100" width="50px" height="50px"><circle cx="78" cy="14" r="1" fill="#f1bc19"/><circle cx="50" cy="50" r="38" fill="#f9dbd2"/><circle cx="84" cy="16" r="4" fill="#f1bc19"/><circle cx="14" cy="26" r="2" fill="#ee3e54"/><circle cx="78" cy="77" r="2" fill="#fbcd59"/><circle cx="17" cy="78" r="4" fill="#fbcd59"/><circle cx="24" cy="83" r="2" fill="#ee3e54"/><circle cx="66.483" cy="78.517" r="2.483" fill="#fff"/><circle cx="16" cy="48" r="1" fill="#fff"/><circle cx="86" cy="31" r="1" fill="#f1bc19"/><circle cx="80" cy="66" r="2" fill="#fff"/><path fill="#00c853" d="M28.005,65.001l-0.004-30c0-3.866,3.134-7.001,7-7.001H65c3.866,0,7,3.134,7,7v30 c0,3.866-3.134,7-7,7H35.005C31.139,72,28.005,68.867,28.005,65.001z"/><path fill="#472b29" d="M65,28.4c3.639,0,6.6,2.961,6.6,6.6v30c0,3.639-2.961,6.6-6.6,6.6H35c-3.639,0-6.6-2.961-6.6-6.6V35 c0-3.639,2.961-6.6,6.6-6.6H65 M65,27H35c-4.418,0-8,3.582-8,8v30c0,4.418,3.582,8,8,8h30c4.418,0,8-3.582,8-8V35 C73,30.582,69.418,27,65,27L65,27z"/><path fill="#472b29" d="M64,69H36c-2.757,0-5-2.243-5-5V36c0-2.757,2.243-5,5-5h25.375c0.276,0,0.5,0.224,0.5,0.5 s-0.224,0.5-0.5,0.5H36c-2.206,0-4,1.794-4,4v28c0,2.206,1.794,4,4,4h28c2.206,0,4-1.794,4-4V49.625c0-0.276,0.224-0.5,0.5-0.5 s0.5,0.224,0.5,0.5V64C69,66.757,66.757,69,64,69z"/><path fill="#472b29" d="M68.5,47.375c-0.276,0-0.5-0.224-0.5-0.5V43c0-0.276,0.224-0.5,0.5-0.5S69,42.724,69,43v3.875 C69,47.151,68.776,47.375,68.5,47.375z"/><path fill="#472b29" d="M68.5,40.5c-0.276,0-0.5-0.224-0.5-0.5v-2c0-0.276,0.224-0.5,0.5-0.5S69,37.724,69,38v2 C69,40.276,68.776,40.5,68.5,40.5z"/><path fill="#fdfcef" d="M55.938,36.875c-3.624,0-6.563,2.938-6.563,6.563S52.313,50,55.938,50s6.563-2.938,6.563-6.563 S59.562,36.875,55.938,36.875z M55.938,50c-3.624,0-6.563,2.938-6.563,6.563s2.938,6.563,6.563,6.563s6.563-2.938,6.563-6.563 S59.562,50,55.938,50z"/><path fill="#fdfcef" d="M37.5,36.875h11.875v26.25H37.5V36.875z"/><path fill="#472b29" d="M49.375,63.375H37.5c-0.138,0-0.25-0.112-0.25-0.25v-26.25c0-0.138,0.112-0.25,0.25-0.25h11.875 c0.138,0,0.25,0.112,0.25,0.25v26.25C49.625,63.263,49.513,63.375,49.375,63.375z M37.75,62.875h11.375v-25.75H37.75V62.875z"/><path fill="#472b29" d="M55.938,63.376c-3.757,0-6.813-3.056-6.813-6.813c0-1.841,0.718-3.566,2.022-4.859 c0.832-0.826,1.839-1.407,2.935-1.711c-2.857-0.81-4.957-3.442-4.957-6.555c0-3.757,3.057-6.813,6.813-6.813 s6.813,3.056,6.813,6.812c0,3.131-2.122,5.775-5.004,6.569c2.881,0.812,5.004,3.452,5.004,6.557 C62.751,60.32,59.695,63.376,55.938,63.376z M55.881,50.25c-1.65,0-3.204,0.641-4.382,1.809c-1.208,1.198-1.874,2.799-1.874,4.505 c0,3.48,2.832,6.313,6.313,6.313c3.48,0,6.313-2.832,6.313-6.313c0-3.451-2.832-6.283-6.313-6.313 C55.919,50.25,55.899,50.25,55.881,50.25z M55.884,49.75c0.019,0,0.037,0,0.056,0c3.48,0,6.312-2.832,6.312-6.313 c0-3.48-2.832-6.312-6.313-6.312c-3.481,0-6.313,2.832-6.313,6.313C49.625,46.9,52.428,49.72,55.884,49.75z"/></svg>